<svg preserveAspectRatio="none" width="100%" height="100%" overflow="visible" style="display: block;" viewBox="0 0 94.9598 59.9333" fill="none" xmlns="http://www.w3.org/2000/svg">
<g id="Logo">
<g id="Logo_2">
<path d="M13.9635 57.2661C14.87 57.2661 15.9334 57.0046 17.1537 56.4816C18.374 55.9935 19.5245 55.1219 20.6053 53.8668C21.721 52.6116 22.645 50.9206 23.3771 48.7939C24.1442 46.702 24.4928 44.0696 24.4231 40.8969C24.4231 32.9825 23.2202 27.4215 20.8145 24.2139L16.9445 19.2456C16.8748 19.1759 16.7876 19.0713 16.683 18.9318C16.5784 18.7924 16.4389 18.6355 16.2646 18.4611L14.4865 16.3692C13.7543 15.4976 13.0919 14.6783 12.4992 13.9112C11.9413 13.1093 11.4707 12.3423 11.0871 11.6101C10.4944 10.599 10.1981 9.39618 10.1981 8.00157C10.1981 5.80506 10.9302 3.99207 12.3946 2.56259C13.8938 1.13312 15.7416 0.418383 17.9382 0.418383C18.7749 0.418383 19.6117 0.540411 20.4484 0.784467C21.0063 0.923928 21.4595 1.04596 21.8082 1.15055C22.1917 1.22028 22.4881 1.27258 22.6973 1.30745C23.1854 1.30745 23.6212 1.15055 24.0047 0.836767L24.5277 0.366086L24.8415 0V11.8716C24.1093 11.8716 23.5689 11.3486 23.2202 10.3027C23.0808 9.98889 22.9413 9.55307 22.8019 8.99522C22.6973 8.43738 22.5927 8.03643 22.4881 7.79237L22.2789 7.11251C22.2091 6.83358 22.122 6.5198 22.0174 6.17114C21.9128 5.82249 21.7908 5.42154 21.6513 4.96829C20.8843 2.94611 19.6117 1.93502 17.8336 1.93502C16.9619 1.93502 16.2472 2.24881 15.6893 2.87638C15.1664 3.46909 14.9049 4.20126 14.9049 5.07289C14.9049 6.64182 15.7591 8.38509 17.4675 10.3027L18.6703 11.6624L19.9255 13.1791C20.3787 13.702 20.9191 14.3645 21.5467 15.1664C22.1743 15.9334 22.889 16.8573 23.6909 17.9382L26.2012 22.0174C27.5261 25.1204 28.3629 28.0665 28.7115 30.8557C28.7812 31.4484 28.8335 32.0934 28.8684 32.7907C28.9033 33.4532 28.9207 34.1679 28.9207 34.9349C28.9207 41.2107 27.5958 46.6845 24.9461 51.3565C21.7385 57.0744 17.2234 59.9333 11.4009 59.9333C8.43738 59.9333 5.82249 59.0094 3.55625 57.1615C1.18542 55.1742 0 52.6988 0 49.7352C0 47.3993 0.836765 45.3073 2.5103 43.4595C4.0095 41.786 6.06655 40.9492 8.68144 40.9492C10.1458 40.9492 11.3312 41.507 12.2377 42.6227C11.122 42.7622 9.58793 43.3898 7.63548 44.5054C6.45007 45.1679 5.85736 46.7717 5.85736 49.3168C5.85736 51.5831 6.65926 53.4658 8.26306 54.965C9.86686 56.4991 11.767 57.2661 13.9635 57.2661Z" fill="var(--fill-0, #F5CB34)"/>
<path d="M48.1164 0.679872L55.0198 39.5372C55.229 40.618 55.7868 41.1584 56.6933 41.1584C57.2163 41.1584 57.6695 41.0015 58.053 40.6877C58.1576 41.8731 57.809 42.9191 57.0071 43.8256C55.996 44.7321 54.8977 45.1853 53.7123 45.1853C51.0277 45.1853 49.3542 43.3026 48.6917 39.5372L45.2924 20.7622C44.3859 15.8811 42.8518 13.4405 40.6902 13.4405L37.2385 32.7907C37.2385 33.767 37.2559 34.5863 37.2908 35.2487C37.3257 35.9112 37.378 36.4167 37.4477 36.7654C37.7963 37.8113 38.6854 38.7353 40.1149 39.5372H31.7472C33.4556 38.5609 34.7282 36.6085 35.565 33.6798L40.7425 4.60221C40.7425 3.17273 39.9057 2.458 38.2322 2.458C37.1862 2.458 36.2971 2.89381 35.565 3.76544C34.9723 4.74167 34.6759 5.7179 34.6759 6.69412C34.6759 8.96036 35.6521 10.2852 37.6046 10.6688C37.3257 11.0871 37.0467 11.3138 36.7678 11.3486L35.8788 11.6624L34.9374 11.7147C33.4033 11.7844 32.1482 11.2266 31.172 10.0412C30.1957 8.85576 29.7076 7.58318 29.7076 6.22344C29.7076 4.61964 30.2829 3.27733 31.4334 2.19651C32.6189 1.11569 34.2052 0.575275 36.1925 0.575275H37.3431C37.5174 0.575275 37.6917 0.592708 37.8661 0.627575C38.0753 0.627575 38.2845 0.645008 38.4936 0.679872H48.1164ZM41.0039 11.5578H43.6711L43.4096 9.6751C43.3748 9.43104 43.3225 9.15212 43.2528 8.83833C43.183 8.52455 43.1133 8.17589 43.0436 7.79237C43.0436 7.72265 42.9564 7.19967 42.7821 6.22344L42.3637 4.13153L41.7361 7.79237C41.7361 8.00157 41.6315 8.59428 41.4223 9.5705L41.0039 11.5578Z" fill="var(--fill-0, #F5CB34)"/>
<path d="M57.1194 57.2661C58.0259 57.2661 59.0893 57.0046 60.3096 56.4816C61.5299 55.9935 62.6804 55.1219 63.7613 53.8668C64.8769 52.6116 65.8009 50.9206 66.533 48.7939C67.3001 46.702 67.6487 44.0696 67.579 40.8969C67.579 32.9825 66.3762 27.4215 63.9705 24.2139L60.1004 19.2456C60.0307 19.1759 59.9435 19.0713 59.8389 18.9318C59.7343 18.7924 59.5949 18.6355 59.4205 18.4611L57.6424 16.3692C56.9102 15.4976 56.2478 14.6783 55.6551 13.9112C55.0973 13.1093 54.6266 12.3423 54.2431 11.6101C53.6503 10.599 53.354 9.39618 53.354 8.00157C53.354 5.80506 54.0862 3.99207 55.5505 2.56259C57.0497 1.13312 58.8976 0.418383 61.0941 0.418383C61.9308 0.418383 62.7676 0.540411 63.6044 0.784467C64.1622 0.923928 64.6155 1.04596 64.9641 1.15055C65.3476 1.22028 65.644 1.27258 65.8532 1.30745C66.3413 1.30745 66.7771 1.15055 67.1606 0.836767L67.6836 0.366086L67.9974 0V11.8716C67.2652 11.8716 66.7248 11.3486 66.3762 10.3027C66.2367 9.98889 66.0972 9.55307 65.9578 8.99522C65.8532 8.43738 65.7486 8.03643 65.644 7.79237L65.4348 7.11251C65.3651 6.83358 65.2779 6.5198 65.1733 6.17114C65.0687 5.82249 64.9467 5.42154 64.8072 4.96829C64.0402 2.94611 62.7676 1.93502 60.9895 1.93502C60.1178 1.93502 59.4031 2.24881 58.8453 2.87638C58.3223 3.46909 58.0608 4.20126 58.0608 5.07289C58.0608 6.64182 58.915 8.38509 60.6234 10.3027L61.8262 11.6624L63.0814 13.1791C63.5346 13.702 64.075 14.3645 64.7026 15.1664C65.3302 15.9334 66.0449 16.8573 66.8468 17.9382L69.3571 22.0174C70.682 25.1204 71.5188 28.0665 71.8674 30.8557C71.9372 31.4484 71.9895 32.0934 72.0243 32.7907C72.0592 33.4532 72.0766 34.1679 72.0766 34.9349C72.0766 41.2107 70.7517 46.6845 68.102 51.3565C64.8944 57.0744 60.3793 59.9333 54.5568 59.9333C51.5933 59.9333 48.9784 59.0094 46.7122 57.1615C44.3413 55.1742 43.1559 52.6988 43.1559 49.7352C43.1559 47.3993 43.9927 45.3073 45.6662 43.4595C47.1654 41.786 49.2225 40.9492 51.8374 40.9492C53.3017 40.9492 54.4871 41.507 55.3936 42.6227C54.2779 42.7622 52.7439 43.3898 50.7914 44.5054C49.606 45.1679 49.0133 46.7717 49.0133 49.3168C49.0133 51.5831 49.8152 53.4658 51.419 54.965C53.0228 56.4991 54.9229 57.2661 57.1194 57.2661Z" fill="var(--fill-0, #F5CB34)"/>
<path d="M84.3956 38.7004C86.7664 38.7004 87.9519 31.8842 87.9519 18.2519C87.9519 7.30426 86.7664 1.83043 84.3956 1.83043C82.0945 1.83043 80.944 7.30426 80.944 18.2519C80.944 31.8842 82.0945 38.7004 84.3956 38.7004ZM84.3956 40.3216C83.0707 40.3216 81.5367 39.3454 79.7934 37.3929C77.8061 35.0221 76.2894 31.9191 75.2435 28.0839C74.3719 24.8415 73.9361 21.3898 73.9361 17.729C73.9361 12.2551 74.9646 7.9667 77.0216 4.8637C79.1135 1.76069 81.5715 0.209192 84.3956 0.209192C88.3702 0.209192 91.3861 2.92868 93.4431 8.36765C94.4542 11.1917 94.9598 14.3122 94.9598 17.729C94.9598 21.2155 94.5065 24.6671 93.6 28.0839C92.5541 31.9888 91.0374 35.0918 89.0501 37.3929C87.3069 39.3454 85.7554 40.3216 84.3956 40.3216Z" fill="var(--fill-0, #F5CB34)"/>
</g>
</g>
</svg>
